<?xml version="1.0" standalone="no"?>
<!DOCTYPE svg PUBLIC "-//W3C//DTD SVG 20010904//EN"
 "http://www.w3.org/TR/2001/REC-SVG-20010904/DTD/svg10.dtd">
<svg version="1.0" xmlns="http://www.w3.org/2000/svg"
 width="512.000000pt" height="512.000000pt" viewBox="0 0 512.000000 512.000000"
 preserveAspectRatio="xMidYMid meet">
<metadata>
Created by potrace 1.14, written by Peter Selinger 2001-2017
</metadata>
<g transform="translate(0.000000,512.000000) scale(0.100000,-0.100000)"
fill="#000000" stroke="none">
<path d="M2953 4819 c-30 -17 -79 -59 -69 -59 3 0 -2 -17 -10 -37 -9 -20 -18
-46 -21 -57 -5 -26 -9 -37 -16 -56 -19 -51 -61 -202 -59 -212 1 -5 -2 -8 -8
-8 -6 0 -9 -3 -8 -7 1 -5 -4 -26 -10 -47 -6 -22 -9 -43 -6 -48 3 -4 1 -8 -5
-8 -9 0 -28 -65 -23 -82 1 -5 -3 -8 -9 -8 -6 0 -9 -7 -5 -15 3 -8 1 -15 -5
-15 -6 0 -7 -5 -4 -10 4 -6 1 -17 -5 -25 -6 -8 -9 -19 -6 -24 4 -5 2 -12 -4
-16 -6 -4 -8 -11 -5 -16 4 -5 1 -9 -4 -9 -6 0 -11 -8 -11 -18 0 -10 -14 -61
-31 -113 -17 -52 -32 -101 -34 -109 -1 -8 -22 -76 -45 -150 -55 -178 -68 -222
-90 -302 -10 -37 -24 -76 -30 -88 -6 -11 -8 -20 -4 -20 3 0 1 -7 -6 -15 -7 -8
-10 -15 -6 -15 4 0 0 -13 -8 -28 -8 -16 -21 -29 -28 -29 -7 0 -51 -14 -98 -33
-47 -18 -89 -33 -95 -35 -5 -1 -17 -5 -25 -8 -66 -28 -369 -138 -382 -140 -10
-1 -18 -5 -18 -10 0 -4 -4 -6 -9 -2 -5 3 -16 -1 -24 -9 -8 -8 -17 -12 -21 -9
-3 3 -13 0 -22 -8 -10 -8 -20 -13 -23 -13 -3 1 -16 -2 -29 -7 -13 -5 -28 -9
-33 -9 -5 0 -9 -5 -9 -11 0 -5 -4 -8 -9 -5 -5 4 -22 1 -38 -5 -15 -6 -28 -9
-28 -8 0 1 -11 -4 -25 -11 -14 -8 -32 -15 -40 -16 -8 -2 -23 -7 -35 -12 -11
-6 -33 -15 -50 -21 -16 -6 -43 -16 -60 -22 -16 -7 -36 -13 -43 -15 -8 -1 -21
-6 -30 -10 -9 -4 -19 -8 -22 -9 -86 -29 -128 -57 -146 -96 -16 -37 -18 -50
-15 -96 2 -35 57 -90 109 -109 26 -10 49 -20 52 -23 3 -4 10 -6 15 -6 20 -1
125 -39 125 -45 0 -4 7 -7 15 -8 8 -1 22 -3 30 -4 8 -1 15 -5 15 -10 0 -5 6
-8 13 -6 6 1 21 -3 32 -9 11 -6 23 -12 27 -12 11 -2 40 -12 63 -21 11 -4 47
-18 80 -30 33 -12 71 -27 85 -33 14 -6 33 -11 43 -10 9 0 17 -4 17 -8 0 -5 7
-9 15 -9 8 0 23 -4 33 -10 15 -9 169 -67 197 -74 6 -2 23 -8 38 -14 16 -7 30
-12 32 -12 2 0 16 -5 32 -12 15 -6 37 -13 48 -15 11 -2 22 -8 23 -13 2 -6 15
-10 28 -10 13 0 24 -4 24 -8 0 -4 12 -9 26 -10 15 -1 32 -6 39 -12 6 -5 20
-11 31 -13 49 -9 79 -34 73 -59 0 -2 7 -21 17 -43 9 -22 16 -42 16 -45 1 -8 4
-20 24 -85 9 -33 19 -69 21 -80 2 -11 7 -29 12 -40 5 -11 19 -56 31 -100 12
-44 29 -101 37 -126 8 -25 16 -52 17 -60 2 -11 30 -108 52 -177 2 -7 4 -14 5
-17 0 -2 14 -48 31 -102 16 -54 33 -112 38 -129 4 -18 10 -36 13 -41 3 -5 9
-23 12 -39 3 -16 7 -33 9 -39 2 -5 7 -25 11 -43 4 -18 11 -35 16 -38 4 -2 6
-11 2 -19 -3 -8 -1 -15 4 -15 5 0 10 -11 11 -25 3 -36 6 -49 14 -56 5 -3 9
-17 10 -32 1 -15 7 -27 12 -27 5 0 6 -3 3 -6 -3 -4 -2 -15 3 -25 6 -10 11 -29
12 -43 1 -15 6 -26 11 -26 5 0 7 -7 4 -15 -4 -8 -2 -17 3 -20 6 -4 10 -15 10
-26 0 -19 23 -61 47 -87 14 -14 72 -39 88 -37 53 6 86 20 109 45 14 17 24 30
21 30 -4 0 1 10 9 22 9 12 16 33 16 45 0 13 5 23 11 23 5 0 8 4 5 9 -3 4 6 43
19 86 14 42 23 81 20 85 -3 5 -1 10 4 12 5 1 11 17 13 33 2 17 6 32 9 35 4 3
9 16 10 30 2 14 6 27 9 30 10 10 28 70 20 65 -5 -3 -3 7 5 22 8 15 15 33 15
39 0 6 9 37 19 70 10 32 29 93 41 134 12 41 35 120 52 175 16 55 32 107 33
115 2 8 9 31 15 50 6 19 13 45 16 57 2 12 9 35 16 50 6 16 11 31 10 35 -1 4 5
25 13 45 8 21 16 47 18 58 2 11 12 47 21 80 18 58 21 69 26 90 1 6 8 25 15 43
8 17 11 32 8 32 -3 0 0 6 6 13 6 8 9 16 6 19 -6 6 22 31 39 34 6 1 41 14 79
28 37 14 67 22 67 18 0 -4 4 -2 8 3 6 9 372 148 412 157 8 2 17 5 20 8 3 3 37
16 75 29 39 14 73 29 77 35 4 6 8 8 8 4 0 -4 24 2 53 13 28 12 58 22 65 22 6
0 12 4 12 9 0 5 4 7 8 4 5 -3 21 2 36 10 16 7 32 14 36 14 4 0 25 8 46 17 22
9 48 18 58 20 11 2 25 8 33 14 7 6 13 9 13 5 0 -4 13 0 29 8 16 9 31 12 35 9
3 -4 6 -1 6 5 0 7 3 11 8 10 14 -3 62 14 62 23 0 5 5 9 11 9 15 0 34 21 54 59
12 25 15 45 10 77 -3 24 -10 44 -14 44 -4 0 -13 11 -19 25 -6 13 -23 27 -37
31 -14 3 -25 11 -25 17 0 6 -3 7 -7 4 -3 -4 -12 -2 -20 4 -7 6 -13 9 -13 5 0
-4 -13 0 -30 9 -16 9 -30 13 -30 10 0 -3 -11 2 -25 11 -14 9 -25 14 -25 11 0
-3 -12 0 -27 8 -15 8 -30 12 -35 9 -4 -3 -8 -1 -8 3 0 9 -89 39 -102 35 -5 -1
-8 2 -8 6 0 4 -21 14 -47 22 -26 7 -59 19 -72 26 -14 7 -28 11 -33 8 -4 -3 -8
-1 -8 4 0 5 -6 9 -12 9 -18 2 -211 74 -250 94 -10 5 -25 9 -33 9 -8 0 -23 4
-33 9 -21 12 -51 21 -56 18 -1 -1 -10 4 -18 11 -9 7 -27 15 -39 17 -13 3 -33
9 -44 14 -38 18 -120 46 -127 43 -5 -1 -8 3 -8 10 0 6 -3 8 -7 5 -3 -4 -11 -2
-18 3 -6 5 -20 11 -31 13 -10 2 -30 9 -44 14 -14 6 -28 9 -31 7 -6 -4 -17 14
-16 26 0 3 -6 16 -13 30 -8 14 -16 36 -18 49 -2 14 -8 33 -13 43 -10 18 -17
43 -24 78 -1 8 -5 22 -8 30 -4 8 -23 69 -42 135 -20 66 -39 127 -42 135 -3 8
-7 20 -8 26 -4 16 -56 187 -62 204 -3 8 -7 20 -8 25 -2 6 -13 44 -25 85 -12
41 -21 75 -19 75 1 0 -3 10 -9 21 -6 12 -14 36 -17 55 -3 18 -9 36 -13 39 -4
3 -8 14 -10 25 -2 11 -12 47 -23 79 -10 33 -19 68 -19 78 0 10 -5 18 -11 18
-6 0 -9 6 -6 14 3 7 -1 26 -9 41 -8 15 -12 31 -9 35 3 5 1 11 -5 15 -6 4 -8
11 -5 16 4 5 2 9 -2 9 -5 0 -10 11 -11 24 -1 13 -7 37 -13 52 -7 16 -11 35
-10 42 1 6 -3 12 -8 12 -5 0 -8 9 -6 20 2 11 -1 20 -6 20 -6 0 -8 4 -5 9 3 5
-1 14 -9 21 -8 7 -12 17 -8 23 3 5 1 7 -4 4 -6 -4 -13 0 -17 8 -3 8 -12 15
-20 15 -8 0 -16 4 -18 9 -7 18 -82 18 -115 0z"/>
<path d="M763 4766 c-27 -14 -45 -32 -54 -53 -7 -18 -16 -33 -21 -33 -4 0 -7
-3 -7 -7 3 -18 -14 -73 -23 -73 -5 0 -7 -4 -4 -8 3 -5 -1 -20 -9 -35 -8 -15
-12 -27 -10 -27 2 0 -4 -20 -15 -45 -11 -25 -17 -45 -14 -45 3 0 -2 -10 -10
-22 -9 -12 -16 -31 -16 -41 0 -9 -8 -20 -17 -23 -10 -3 -27 -10 -38 -14 -11
-5 -76 -29 -145 -54 -156 -56 -183 -70 -206 -104 -10 -15 -19 -29 -19 -32 0
-3 -3 -9 -6 -15 -11 -20 -1 -86 15 -104 9 -9 16 -22 16 -28 0 -9 51 -36 70
-38 3 0 15 -6 26 -13 12 -6 24 -8 28 -5 3 3 6 2 6 -3 0 -5 21 -16 48 -23 26
-8 52 -16 57 -20 6 -3 15 -6 20 -8 35 -8 140 -52 141 -59 0 -5 5 -20 11 -34 6
-14 34 -89 63 -168 63 -171 88 -203 170 -219 22 -4 82 17 104 36 21 18 60 91
49 91 -4 0 -2 5 5 12 7 7 12 20 12 30 0 10 4 18 10 18 5 0 9 3 9 8 -4 18 15
72 24 72 6 0 8 3 4 6 -3 4 0 22 8 40 8 19 11 34 8 34 -3 0 1 8 10 18 10 10 14
22 10 25 -3 4 -2 7 4 7 6 0 10 7 9 16 -1 15 16 22 164 75 30 11 69 27 87 35
17 7 36 14 42 14 25 0 92 42 108 68 10 15 20 29 23 32 8 8 6 100 -2 100 -5 0
-8 6 -8 13 -1 25 -52 60 -137 94 -49 19 -96 36 -105 38 -9 2 -37 13 -62 23
-24 11 -58 23 -74 27 -26 5 -34 15 -52 61 -11 30 -20 56 -20 58 0 2 -8 21 -17
42 -9 22 -17 41 -18 44 -6 32 -31 100 -37 100 -4 0 -7 3 -7 8 1 4 0 10 -1 15
-1 4 -3 11 -4 16 0 5 -11 23 -24 41 -41 54 -114 69 -179 36z"/>
<path d="M1400 1838 c0 -4 -6 -8 -13 -8 -16 0 -70 -58 -76 -80 -2 -8 -17 -64
-33 -125 -16 -60 -31 -117 -33 -125 -2 -8 -8 -28 -15 -45 -6 -16 -11 -32 -11
-35 0 -3 -2 -14 -5 -26 -3 -11 -7 -29 -9 -40 -2 -10 -4 -20 -5 -21 -2 -2 -4
-7 -5 -13 -1 -5 -4 -12 -5 -15 -1 -3 -3 -11 -4 -17 0 -7 -21 -20 -46 -28 -25
-9 -54 -21 -65 -27 -11 -6 -24 -11 -28 -11 -4 0 -20 -5 -35 -10 -15 -6 -61
-23 -102 -38 -44 -17 -89 -42 -108 -61 -19 -18 -31 -33 -27 -33 4 0 3 -6 -2
-12 -15 -19 -9 -93 11 -122 20 -31 79 -70 121 -80 17 -4 44 -14 60 -21 17 -7
71 -28 120 -45 50 -18 92 -34 94 -36 2 -2 5 -14 7 -27 1 -12 3 -22 4 -22 1 0
3 -7 5 -15 2 -8 30 -116 61 -240 53 -208 88 -302 107 -283 4 3 7 2 7 -4 0 -22
49 -32 121 -25 33 4 104 92 101 126 -1 3 6 28 14 56 8 28 12 55 9 60 -3 6 -1
10 6 10 7 0 9 3 6 7 -4 3 -2 12 4 20 6 7 9 13 6 13 -2 0 14 73 37 162 l41 162
65 24 c36 14 74 29 85 34 12 5 27 10 35 12 8 2 29 8 45 15 38 15 48 18 58 20
4 0 22 8 40 17 60 31 91 78 89 137 -3 74 -37 109 -144 149 -40 15 -86 33 -103
39 -16 7 -32 13 -35 13 -3 1 -35 12 -72 25 l-66 24 -17 61 c-9 34 -18 68 -19
76 -6 32 -27 106 -37 130 -6 14 -13 40 -15 57 -2 18 -11 54 -20 79 -9 26 -17
55 -19 67 -3 11 -11 27 -20 37 -8 9 -12 20 -8 25 5 4 2 5 -4 1 -7 -4 -13 -2
-13 4 0 6 -12 16 -27 22 -33 13 -113 18 -113 6z"/>
</g>
</svg>
